# xmcd
#
# Track frame offsets:
#	150
#	15272
#	28017
#	45122
#	63017
#	77220
#	94965
#	106107
#	126107
#	140530
#
# Disc length: 2077 seconds
#
# Revision: 0
# Processed by: cddbd v1.4PL0 Copyright (c) Steve Scherf et al.
# Submitted via: dBpowerAMP V4.0
#
DISCID=6f081b0a
DTITLE=A Idade do Lobo - Blues And Ballads
DYEAR=1900
DGENRE=Blues
TTITLE0=How Long Blues
TTITLE1=San Francisco Bay Blues
TTITLE2=Georgia On My Mind
TTITLE3=The Dock Of The Bay
TTITLE4=True Fine Mama
TTITLE5=Nobody Knows You
TTITLE6=Miss Ann
TTITLE7=Unchained Melody
TTITLE8=Smoke Get´s In Your Eyes
TTITLE9=Oh Me Oh My
EXTD=
EXTT0=
EXTT1=
EXTT2=
EXTT3=
EXTT4=
EXTT5=
EXTT6=
EXTT7=
EXTT8=
EXTT9=
PLAYORDER=
